<mxfile host="app.diagrams.net" agent="Mozilla/5.0 (Windows NT 10.0; Win64; x64) AppleWebKit/537.36 (KHTML, like Gecko) Chrome/138.0.0.0 Safari/537.36" version="28.0.7">
  <diagram name="PÃ¡gina-1" id="d804ra6qyyvwW-fFOSrL">
    <mxGraphModel grid="1" page="1" gridSize="10" guides="1" tooltips="1" connect="1" arrows="1" fold="1" pageScale="1" pageWidth="827" pageHeight="1169" math="0" shadow="0">
      <root>
        <mxCell id="0" />
        <mxCell id="1" parent="0" />
        <mxCell id="PJ0HLcLy97F8GX600f_A-1" value="Admin" style="shape=umlLifeline;perimeter=lifelinePerimeter;whiteSpace=wrap;container=1;dropTarget=0;collapsible=0;recursiveResize=0;outlineConnect=0;portConstraint=eastwest;newEdgeStyle={&quot;edgeStyle&quot;:&quot;elbowEdgeStyle&quot;,&quot;elbow&quot;:&quot;vertical&quot;,&quot;curved&quot;:0,&quot;rounded&quot;:0};participant=umlActor;verticalAlign=bottom;labelPosition=center;verticalLabelPosition=top;align=center;size=65;" vertex="1" parent="1">
          <mxGeometry x="20" y="20" width="35" height="3430" as="geometry" />
        </mxCell>
        <mxCell id="PJ0HLcLy97F8GX600f_A-2" value="PromocionController" style="shape=umlLifeline;perimeter=lifelinePerimeter;whiteSpace=wrap;container=1;dropTarget=0;collapsible=0;recursiveResize=0;outlineConnect=0;portConstraint=eastwest;newEdgeStyle={&quot;edgeStyle&quot;:&quot;elbowEdgeStyle&quot;,&quot;elbow&quot;:&quot;vertical&quot;,&quot;curved&quot;:0,&quot;rounded&quot;:0};size=65;fontSize=17;" vertex="1" parent="1">
          <mxGeometry x="298" y="20" width="168" height="3430" as="geometry" />
        </mxCell>
        <mxCell id="PJ0HLcLy97F8GX600f_A-3" value="PromocionService" style="shape=umlLifeline;perimeter=lifelinePerimeter;whiteSpace=wrap;container=1;dropTarget=0;collapsible=0;recursiveResize=0;outlineConnect=0;portConstraint=eastwest;newEdgeStyle={&quot;edgeStyle&quot;:&quot;elbowEdgeStyle&quot;,&quot;elbow&quot;:&quot;vertical&quot;,&quot;curved&quot;:0,&quot;rounded&quot;:0};size=65;fontSize=17;" vertex="1" parent="1">
          <mxGeometry x="550" y="20" width="150" height="3430" as="geometry" />
        </mxCell>
        <mxCell id="PJ0HLcLy97F8GX600f_A-4" value="CodigoPromocionalService" style="shape=umlLifeline;perimeter=lifelinePerimeter;whiteSpace=wrap;container=1;dropTarget=0;collapsible=0;recursiveResize=0;outlineConnect=0;portConstraint=eastwest;newEdgeStyle={&quot;edgeStyle&quot;:&quot;elbowEdgeStyle&quot;,&quot;elbow&quot;:&quot;vertical&quot;,&quot;curved&quot;:0,&quot;rounded&quot;:0};size=65;fontSize=16;" vertex="1" parent="1">
          <mxGeometry x="763" y="20" width="210" height="3430" as="geometry" />
        </mxCell>
        <mxCell id="PJ0HLcLy97F8GX600f_A-5" value="ReglaAplicacionService" style="shape=umlLifeline;perimeter=lifelinePerimeter;whiteSpace=wrap;container=1;dropTarget=0;collapsible=0;recursiveResize=0;outlineConnect=0;portConstraint=eastwest;newEdgeStyle={&quot;edgeStyle&quot;:&quot;elbowEdgeStyle&quot;,&quot;elbow&quot;:&quot;vertical&quot;,&quot;curved&quot;:0,&quot;rounded&quot;:0};size=65;fontSize=17;" vertex="1" parent="1">
          <mxGeometry x="1023" y="20" width="181" height="3430" as="geometry" />
        </mxCell>
        <mxCell id="PJ0HLcLy97F8GX600f_A-6" value="EstadisticaService" style="shape=umlLifeline;perimeter=lifelinePerimeter;whiteSpace=wrap;container=1;dropTarget=0;collapsible=0;recursiveResize=0;outlineConnect=0;portConstraint=eastwest;newEdgeStyle={&quot;edgeStyle&quot;:&quot;elbowEdgeStyle&quot;,&quot;elbow&quot;:&quot;vertical&quot;,&quot;curved&quot;:0,&quot;rounded&quot;:0};size=65;fontSize=18;" vertex="1" parent="1">
          <mxGeometry x="1254" y="20" width="150" height="3430" as="geometry" />
        </mxCell>
        <mxCell id="PJ0HLcLy97F8GX600f_A-7" value="HistorialService" style="shape=umlLifeline;perimeter=lifelinePerimeter;whiteSpace=wrap;container=1;dropTarget=0;collapsible=0;recursiveResize=0;outlineConnect=0;portConstraint=eastwest;newEdgeStyle={&quot;edgeStyle&quot;:&quot;elbowEdgeStyle&quot;,&quot;elbow&quot;:&quot;vertical&quot;,&quot;curved&quot;:0,&quot;rounded&quot;:0};size=65;fontSize=17;" vertex="1" parent="1">
          <mxGeometry x="1454" y="20" width="150" height="3430" as="geometry" />
        </mxCell>
        <mxCell id="PJ0HLcLy97F8GX600f_A-8" value="PromocionRepository" style="shape=umlLifeline;perimeter=lifelinePerimeter;whiteSpace=wrap;container=1;dropTarget=0;collapsible=0;recursiveResize=0;outlineConnect=0;portConstraint=eastwest;newEdgeStyle={&quot;edgeStyle&quot;:&quot;elbowEdgeStyle&quot;,&quot;elbow&quot;:&quot;vertical&quot;,&quot;curved&quot;:0,&quot;rounded&quot;:0};size=65;strokeColor=light-dark(#000000,#FF8614);strokeWidth=3;fontSize=17;" vertex="1" parent="1">
          <mxGeometry x="1654" y="20" width="172" height="3430" as="geometry" />
        </mxCell>
        <mxCell id="PJ0HLcLy97F8GX600f_A-9" value="CodigoRepository" style="shape=umlLifeline;perimeter=lifelinePerimeter;whiteSpace=wrap;container=1;dropTarget=0;collapsible=0;recursiveResize=0;outlineConnect=0;portConstraint=eastwest;newEdgeStyle={&quot;edgeStyle&quot;:&quot;elbowEdgeStyle&quot;,&quot;elbow&quot;:&quot;vertical&quot;,&quot;curved&quot;:0,&quot;rounded&quot;:0};size=65;strokeWidth=3;strokeColor=light-dark(#000000,#FF8614);fontSize=18;" vertex="1" parent="1">
          <mxGeometry x="1876" y="20" width="150" height="3430" as="geometry" />
        </mxCell>
        <mxCell id="PJ0HLcLy97F8GX600f_A-10" value="ReglaRepository" style="shape=umlLifeline;perimeter=lifelinePerimeter;whiteSpace=wrap;container=1;dropTarget=0;collapsible=0;recursiveResize=0;outlineConnect=0;portConstraint=eastwest;newEdgeStyle={&quot;edgeStyle&quot;:&quot;elbowEdgeStyle&quot;,&quot;elbow&quot;:&quot;vertical&quot;,&quot;curved&quot;:0,&quot;rounded&quot;:0};size=65;strokeWidth=3;strokeColor=light-dark(#000000,#FF8614);fontSize=18;" vertex="1" parent="1">
          <mxGeometry x="2076" y="20" width="150" height="3430" as="geometry" />
        </mxCell>
        <mxCell id="PJ0HLcLy97F8GX600f_A-11" value="HistorialRepository" style="shape=umlLifeline;perimeter=lifelinePerimeter;whiteSpace=wrap;container=1;dropTarget=0;collapsible=0;recursiveResize=0;outlineConnect=0;portConstraint=eastwest;newEdgeStyle={&quot;edgeStyle&quot;:&quot;elbowEdgeStyle&quot;,&quot;elbow&quot;:&quot;vertical&quot;,&quot;curved&quot;:0,&quot;rounded&quot;:0};size=65;strokeWidth=3;strokeColor=light-dark(#000000,#FF8614);fontSize=17;" vertex="1" parent="1">
          <mxGeometry x="2276" y="20" width="154" height="3430" as="geometry" />
        </mxCell>
        <mxCell id="PJ0HLcLy97F8GX600f_A-12" value="" style="shape=umlFrame;pointerEvents=0;dropTarget=0;strokeColor=light-dark(#B3B3B3,#00FFFF);height=20;width=0;fillColor=light-dark(#A20025,#FFFFFF);strokeWidth=4;" vertex="1" parent="1">
          <mxGeometry x="40" y="143" width="2400" height="344" as="geometry" />
        </mxCell>
        <mxCell id="PJ0HLcLy97F8GX600f_A-13" value="" style="text;strokeColor=none;fillColor=none;align=center;verticalAlign=middle;whiteSpace=wrap;" vertex="1" parent="PJ0HLcLy97F8GX600f_A-12">
          <mxGeometry width="2400" height="20" as="geometry" />
        </mxCell>
        <mxCell id="PJ0HLcLy97F8GX600f_A-14" value="" style="shape=umlFrame;pointerEvents=0;dropTarget=0;strokeColor=light-dark(#B3B3B3,#00FFFF);height=20;width=0;strokeWidth=3;" vertex="1" parent="1">
          <mxGeometry x="40" y="545" width="2400" height="452" as="geometry" />
        </mxCell>
        <mxCell id="PJ0HLcLy97F8GX600f_A-15" value="" style="text;strokeColor=none;fillColor=none;align=center;verticalAlign=middle;whiteSpace=wrap;" vertex="1" parent="PJ0HLcLy97F8GX600f_A-14">
          <mxGeometry width="2400" height="20" as="geometry" />
        </mxCell>
        <mxCell id="PJ0HLcLy97F8GX600f_A-16" value="" style="shape=umlFrame;pointerEvents=0;dropTarget=0;strokeColor=light-dark(#B3B3B3,#00FFFF);height=20;width=0;strokeWidth=3;" vertex="1" parent="1">
          <mxGeometry x="40" y="1055" width="2400" height="668" as="geometry" />
        </mxCell>
        <mxCell id="PJ0HLcLy97F8GX600f_A-17" value="" style="text;strokeColor=none;fillColor=none;align=center;verticalAlign=middle;whiteSpace=wrap;" vertex="1" parent="PJ0HLcLy97F8GX600f_A-16">
          <mxGeometry width="2400" height="20" as="geometry" />
        </mxCell>
        <mxCell id="PJ0HLcLy97F8GX600f_A-18" value="" style="shape=umlFrame;pointerEvents=0;dropTarget=0;strokeColor=light-dark(#B3B3B3,#97D077);height=20;width=0;strokeWidth=4;" vertex="1" parent="1">
          <mxGeometry x="40" y="1781" width="2400" height="344" as="geometry" />
        </mxCell>
        <mxCell id="PJ0HLcLy97F8GX600f_A-19" value="" style="text;strokeColor=none;fillColor=none;align=center;verticalAlign=middle;whiteSpace=wrap;" vertex="1" parent="PJ0HLcLy97F8GX600f_A-18">
          <mxGeometry width="2400" height="20" as="geometry" />
        </mxCell>
        <mxCell id="PJ0HLcLy97F8GX600f_A-20" value="" style="shape=umlFrame;pointerEvents=0;dropTarget=0;strokeColor=#3700CC;height=20;width=0;strokeWidth=4;fillColor=#6a00ff;fontColor=#ffffff;" vertex="1" parent="1">
          <mxGeometry x="40" y="2183" width="2400" height="128" as="geometry" />
        </mxCell>
        <mxCell id="PJ0HLcLy97F8GX600f_A-21" value="" style="text;strokeColor=none;fillColor=none;align=center;verticalAlign=middle;whiteSpace=wrap;" vertex="1" parent="PJ0HLcLy97F8GX600f_A-20">
          <mxGeometry width="2400" height="20" as="geometry" />
        </mxCell>
        <mxCell id="PJ0HLcLy97F8GX600f_A-22" value="" style="shape=umlFrame;pointerEvents=0;dropTarget=0;strokeColor=light-dark(#B3B3B3,#97D077);height=20;width=0;strokeWidth=4;" vertex="1" parent="1">
          <mxGeometry x="40" y="2369" width="2400" height="182" as="geometry" />
        </mxCell>
        <mxCell id="PJ0HLcLy97F8GX600f_A-23" value="" style="text;strokeColor=none;fillColor=none;align=center;verticalAlign=middle;whiteSpace=wrap;" vertex="1" parent="PJ0HLcLy97F8GX600f_A-22">
          <mxGeometry width="2400" height="20" as="geometry" />
        </mxCell>
        <mxCell id="PJ0HLcLy97F8GX600f_A-24" value="" style="shape=umlFrame;pointerEvents=0;dropTarget=0;strokeColor=light-dark(#B3B3B3,#A680B8);height=20;width=0;strokeWidth=3;" vertex="1" parent="1">
          <mxGeometry x="40" y="2609" width="2400" height="344" as="geometry" />
        </mxCell>
        <mxCell id="PJ0HLcLy97F8GX600f_A-25" value="" style="text;strokeColor=none;fillColor=none;align=center;verticalAlign=middle;whiteSpace=wrap;" vertex="1" parent="PJ0HLcLy97F8GX600f_A-24">
          <mxGeometry width="2400" height="20" as="geometry" />
        </mxCell>
        <mxCell id="PJ0HLcLy97F8GX600f_A-26" value="" style="shape=umlFrame;pointerEvents=0;dropTarget=0;strokeColor=light-dark(#B3B3B3,#66FFFF);height=20;width=0;strokeWidth=3;" vertex="1" parent="1">
          <mxGeometry x="40" y="3011" width="2400" height="344" as="geometry" />
        </mxCell>
        <mxCell id="PJ0HLcLy97F8GX600f_A-27" value="" style="text;strokeColor=none;fillColor=none;align=center;verticalAlign=middle;whiteSpace=wrap;" vertex="1" parent="PJ0HLcLy97F8GX600f_A-26">
          <mxGeometry width="2400" height="20" as="geometry" />
        </mxCell>
        <mxCell id="PJ0HLcLy97F8GX600f_A-28" value="GET /promociones" style="verticalAlign=bottom;edgeStyle=elbowEdgeStyle;elbow=vertical;curved=0;rounded=0;endArrow=block;fillColor=#60a917;strokeColor=#2D7600;strokeWidth=4;fontStyle=1;fontSize=16;" edge="1" parent="1" source="PJ0HLcLy97F8GX600f_A-1" target="PJ0HLcLy97F8GX600f_A-2">
          <mxGeometry relative="1" as="geometry">
            <Array as="points">
              <mxPoint x="247" y="197" />
            </Array>
          </mxGeometry>
        </mxCell>
        <mxCell id="PJ0HLcLy97F8GX600f_A-29" value="obtenerPromociones()" style="verticalAlign=bottom;edgeStyle=elbowEdgeStyle;elbow=vertical;curved=0;rounded=0;endArrow=block;fontStyle=1;fontSize=16;fillColor=#a20025;strokeColor=#6F0000;strokeWidth=4;" edge="1" parent="1" source="PJ0HLcLy97F8GX600f_A-2" target="PJ0HLcLy97F8GX600f_A-3">
          <mxGeometry relative="1" as="geometry">
            <Array as="points">
              <mxPoint x="512" y="251" />
            </Array>
          </mxGeometry>
        </mxCell>
        <mxCell id="PJ0HLcLy97F8GX600f_A-30" value="findAll()" style="verticalAlign=bottom;edgeStyle=elbowEdgeStyle;elbow=vertical;curved=0;rounded=0;endArrow=block;fontStyle=1;fontSize=18;strokeColor=light-dark(#000000,#CC0066);strokeWidth=4;" edge="1" parent="1" source="PJ0HLcLy97F8GX600f_A-3" target="PJ0HLcLy97F8GX600f_A-8">
          <mxGeometry relative="1" as="geometry">
            <Array as="points">
              <mxPoint x="1191" y="305" />
            </Array>
          </mxGeometry>
        </mxCell>
        <mxCell id="PJ0HLcLy97F8GX600f_A-31" value="listaPromociones" style="verticalAlign=bottom;edgeStyle=elbowEdgeStyle;elbow=vertical;curved=0;rounded=0;dashed=1;dashPattern=2 3;endArrow=block;fontStyle=1;fontSize=18;strokeColor=light-dark(#000000,#CC0066);strokeWidth=4;" edge="1" parent="1" source="PJ0HLcLy97F8GX600f_A-8" target="PJ0HLcLy97F8GX600f_A-3">
          <mxGeometry relative="1" as="geometry">
            <Array as="points">
              <mxPoint x="1194" y="359" />
            </Array>
          </mxGeometry>
        </mxCell>
        <mxCell id="PJ0HLcLy97F8GX600f_A-32" value="listaPromociones" style="verticalAlign=bottom;edgeStyle=elbowEdgeStyle;elbow=horizontal;curved=0;rounded=0;dashed=1;dashPattern=2 3;endArrow=block;fontSize=16;fontStyle=1;strokeWidth=4;fillColor=#a20025;strokeColor=#6F0000;" edge="1" parent="1" source="PJ0HLcLy97F8GX600f_A-3" target="PJ0HLcLy97F8GX600f_A-2">
          <mxGeometry relative="1" as="geometry">
            <Array as="points">
              <mxPoint x="515" y="413" />
            </Array>
          </mxGeometry>
        </mxCell>
        <mxCell id="PJ0HLcLy97F8GX600f_A-33" value="200 OK" style="verticalAlign=bottom;edgeStyle=elbowEdgeStyle;elbow=vertical;curved=0;rounded=0;dashed=1;dashPattern=2 3;endArrow=block;strokeWidth=4;fillColor=#60a917;strokeColor=#2D7600;fontStyle=1;fontSize=25;" edge="1" parent="1" source="PJ0HLcLy97F8GX600f_A-2" target="PJ0HLcLy97F8GX600f_A-1">
          <mxGeometry relative="1" as="geometry">
            <Array as="points">
              <mxPoint x="250" y="467" />
            </Array>
          </mxGeometry>
        </mxCell>
        <mxCell id="PJ0HLcLy97F8GX600f_A-34" value="PUT /promociones/{id}" style="verticalAlign=bottom;edgeStyle=elbowEdgeStyle;elbow=vertical;curved=0;rounded=0;endArrow=block;fillColor=#60a917;strokeColor=#2D7600;strokeWidth=4;fontStyle=1;fontSize=16;" edge="1" parent="1" source="PJ0HLcLy97F8GX600f_A-1" target="PJ0HLcLy97F8GX600f_A-2">
          <mxGeometry x="-0.0015" relative="1" as="geometry">
            <Array as="points">
              <mxPoint x="247" y="599" />
            </Array>
            <mxPoint as="offset" />
          </mxGeometry>
        </mxCell>
        <mxCell id="PJ0HLcLy97F8GX600f_A-35" value="editarPromocion(id, dto)" style="verticalAlign=bottom;edgeStyle=elbowEdgeStyle;elbow=vertical;curved=0;rounded=0;endArrow=block;fontSize=16;fontStyle=1;fillColor=#a20025;strokeColor=#6F0000;strokeWidth=4;" edge="1" parent="1" source="PJ0HLcLy97F8GX600f_A-2" target="PJ0HLcLy97F8GX600f_A-3">
          <mxGeometry relative="1" as="geometry">
            <Array as="points">
              <mxPoint x="512" y="653" />
            </Array>
          </mxGeometry>
        </mxCell>
        <mxCell id="PJ0HLcLy97F8GX600f_A-36" value="findById(id)" style="verticalAlign=bottom;edgeStyle=elbowEdgeStyle;elbow=vertical;curved=0;rounded=0;endArrow=block;fontStyle=1;fontSize=18;strokeColor=light-dark(#000000,#CC0066);strokeWidth=4;" edge="1" parent="1" source="PJ0HLcLy97F8GX600f_A-3" target="PJ0HLcLy97F8GX600f_A-8">
          <mxGeometry x="-0.0001" relative="1" as="geometry">
            <Array as="points">
              <mxPoint x="1191" y="707" />
            </Array>
            <mxPoint as="offset" />
          </mxGeometry>
        </mxCell>
        <mxCell id="PJ0HLcLy97F8GX600f_A-37" value="PromociÃ³n Existente" style="verticalAlign=bottom;edgeStyle=elbowEdgeStyle;elbow=vertical;curved=0;rounded=0;dashed=1;dashPattern=2 3;endArrow=block;fontSize=18;fontStyle=1;strokeColor=light-dark(#000000,#CC0066);strokeWidth=4;" edge="1" parent="1" source="PJ0HLcLy97F8GX600f_A-8" target="PJ0HLcLy97F8GX600f_A-3">
          <mxGeometry relative="1" as="geometry">
            <Array as="points">
              <mxPoint x="1194" y="761" />
            </Array>
          </mxGeometry>
        </mxCell>
        <mxCell id="PJ0HLcLy97F8GX600f_A-38" value="save(dto editado)" style="verticalAlign=bottom;edgeStyle=elbowEdgeStyle;elbow=vertical;curved=0;rounded=0;endArrow=block;fontSize=18;fontStyle=1;strokeWidth=4;strokeColor=light-dark(#000000,#CC0066);" edge="1" parent="1" source="PJ0HLcLy97F8GX600f_A-3" target="PJ0HLcLy97F8GX600f_A-8">
          <mxGeometry relative="1" as="geometry">
            <Array as="points">
              <mxPoint x="1191" y="815" />
            </Array>
          </mxGeometry>
        </mxCell>
        <mxCell id="PJ0HLcLy97F8GX600f_A-39" value="Promocion Actualizada" style="verticalAlign=bottom;edgeStyle=elbowEdgeStyle;elbow=vertical;curved=0;rounded=0;dashed=1;dashPattern=2 3;endArrow=block;fontStyle=1;fontSize=19;strokeColor=light-dark(#000000,#CC0066);strokeWidth=4;" edge="1" parent="1" source="PJ0HLcLy97F8GX600f_A-8" target="PJ0HLcLy97F8GX600f_A-3">
          <mxGeometry relative="1" as="geometry">
            <Array as="points">
              <mxPoint x="1194" y="869" />
            </Array>
          </mxGeometry>
        </mxCell>
        <mxCell id="PJ0HLcLy97F8GX600f_A-40" value="dto actualizado" style="verticalAlign=bottom;edgeStyle=elbowEdgeStyle;elbow=horizontal;curved=0;rounded=0;dashed=1;dashPattern=2 3;endArrow=block;fontStyle=1;fontSize=16;strokeWidth=4;fillColor=#a20025;strokeColor=#6F0000;" edge="1" parent="1" source="PJ0HLcLy97F8GX600f_A-3" target="PJ0HLcLy97F8GX600f_A-2">
          <mxGeometry relative="1" as="geometry">
            <Array as="points">
              <mxPoint x="515" y="923" />
            </Array>
          </mxGeometry>
        </mxCell>
        <mxCell id="PJ0HLcLy97F8GX600f_A-41" value="200 OK" style="verticalAlign=bottom;edgeStyle=elbowEdgeStyle;elbow=vertical;curved=0;rounded=0;dashed=1;dashPattern=2 3;endArrow=block;strokeWidth=4;fillColor=#60a917;strokeColor=#2D7600;fontSize=25;fontStyle=1" edge="1" parent="1">
          <mxGeometry relative="1" as="geometry">
            <Array as="points">
              <mxPoint x="250" y="950" />
            </Array>
            <mxPoint x="381.5" y="950" as="sourcePoint" />
            <mxPoint x="36" y="950" as="targetPoint" />
          </mxGeometry>
        </mxCell>
        <mxCell id="PJ0HLcLy97F8GX600f_A-42" value="POST /promociones" style="verticalAlign=bottom;edgeStyle=elbowEdgeStyle;elbow=vertical;curved=0;rounded=0;endArrow=block;fillColor=#60a917;strokeColor=#2D7600;strokeWidth=4;fontStyle=1;fontSize=18;" edge="1" parent="1" source="PJ0HLcLy97F8GX600f_A-1" target="PJ0HLcLy97F8GX600f_A-2">
          <mxGeometry relative="1" as="geometry">
            <Array as="points">
              <mxPoint x="247" y="1109" />
            </Array>
          </mxGeometry>
        </mxCell>
        <mxCell id="PJ0HLcLy97F8GX600f_A-43" value="crearPromocion(dto)" style="verticalAlign=bottom;edgeStyle=elbowEdgeStyle;elbow=vertical;curved=0;rounded=0;endArrow=block;fontSize=19;fontStyle=1;strokeColor=#6F0000;strokeWidth=4;fillColor=#a20025;" edge="1" parent="1" source="PJ0HLcLy97F8GX600f_A-2" target="PJ0HLcLy97F8GX600f_A-3">
          <mxGeometry relative="1" as="geometry">
            <Array as="points">
              <mxPoint x="512" y="1163" />
            </Array>
          </mxGeometry>
        </mxCell>
        <mxCell id="PJ0HLcLy97F8GX600f_A-44" value="crearCodigo(dto.codigo)" style="verticalAlign=bottom;edgeStyle=elbowEdgeStyle;elbow=vertical;curved=0;rounded=0;endArrow=block;fontSize=18;fontStyle=1;strokeWidth=4;strokeColor=light-dark(#000000,#FFC5C5);" edge="1" parent="1" source="PJ0HLcLy97F8GX600f_A-3" target="PJ0HLcLy97F8GX600f_A-4">
          <mxGeometry relative="1" as="geometry">
            <Array as="points">
              <mxPoint x="755" y="1217" />
            </Array>
          </mxGeometry>
        </mxCell>
        <mxCell id="PJ0HLcLy97F8GX600f_A-45" value="save()" style="verticalAlign=bottom;edgeStyle=elbowEdgeStyle;elbow=horizontal;curved=0;rounded=0;endArrow=block;strokeWidth=4;strokeColor=light-dark(#000000,#CC0066);fontSize=20;fontStyle=1" edge="1" parent="1" source="PJ0HLcLy97F8GX600f_A-4" target="PJ0HLcLy97F8GX600f_A-9">
          <mxGeometry x="0.0004" relative="1" as="geometry">
            <Array as="points">
              <mxPoint x="1418" y="1271" />
            </Array>
            <mxPoint as="offset" />
          </mxGeometry>
        </mxCell>
        <mxCell id="PJ0HLcLy97F8GX600f_A-46" value="guardado" style="verticalAlign=bottom;edgeStyle=elbowEdgeStyle;elbow=vertical;curved=0;rounded=0;dashed=1;dashPattern=2 3;endArrow=block;strokeColor=light-dark(#000000,#CC0066);strokeWidth=4;fontStyle=1;fontSize=20;" edge="1" parent="1" source="PJ0HLcLy97F8GX600f_A-9" target="PJ0HLcLy97F8GX600f_A-4">
          <mxGeometry x="0.0153" y="-15" relative="1" as="geometry">
            <Array as="points">
              <mxPoint x="1421" y="1325" />
            </Array>
            <mxPoint x="1" as="offset" />
          </mxGeometry>
        </mxCell>
        <mxCell id="PJ0HLcLy97F8GX600f_A-47" value="crearRegla(dto.regla)" style="verticalAlign=bottom;edgeStyle=elbowEdgeStyle;elbow=vertical;curved=0;rounded=0;endArrow=block;strokeWidth=4;strokeColor=light-dark(#000000,#FFC5C5);fontSize=19;fontStyle=1" edge="1" parent="1" source="PJ0HLcLy97F8GX600f_A-3" target="PJ0HLcLy97F8GX600f_A-5">
          <mxGeometry relative="1" as="geometry">
            <Array as="points">
              <mxPoint x="878" y="1379" />
            </Array>
          </mxGeometry>
        </mxCell>
        <mxCell id="PJ0HLcLy97F8GX600f_A-48" value="save()" style="verticalAlign=bottom;edgeStyle=elbowEdgeStyle;elbow=vertical;curved=0;rounded=0;endArrow=block;strokeColor=light-dark(#000000,#CC0066);strokeWidth=4;fontStyle=1;fontSize=20;" edge="1" parent="1" source="PJ0HLcLy97F8GX600f_A-5" target="PJ0HLcLy97F8GX600f_A-10">
          <mxGeometry relative="1" as="geometry">
            <Array as="points">
              <mxPoint x="1641" y="1433" />
            </Array>
          </mxGeometry>
        </mxCell>
        <mxCell id="PJ0HLcLy97F8GX600f_A-49" value="guardado" style="verticalAlign=bottom;edgeStyle=elbowEdgeStyle;elbow=vertical;curved=0;rounded=0;dashed=1;dashPattern=2 3;endArrow=block;strokeWidth=4;strokeColor=light-dark(#000000,#CC0066);fontSize=20;fontStyle=1" edge="1" parent="1" source="PJ0HLcLy97F8GX600f_A-10" target="PJ0HLcLy97F8GX600f_A-5">
          <mxGeometry relative="1" as="geometry">
            <Array as="points">
              <mxPoint x="1644" y="1487" />
            </Array>
          </mxGeometry>
        </mxCell>
        <mxCell id="PJ0HLcLy97F8GX600f_A-50" value="save(dto)" style="verticalAlign=bottom;edgeStyle=elbowEdgeStyle;elbow=horizontal;curved=0;rounded=0;endArrow=block;strokeWidth=4;strokeColor=light-dark(#000000,#CC0066);fontStyle=1;fontSize=20;" edge="1" parent="1" source="PJ0HLcLy97F8GX600f_A-3" target="PJ0HLcLy97F8GX600f_A-8">
          <mxGeometry relative="1" as="geometry">
            <Array as="points">
              <mxPoint x="1191" y="1541" />
            </Array>
          </mxGeometry>
        </mxCell>
        <mxCell id="PJ0HLcLy97F8GX600f_A-51" value="dto guardado" style="verticalAlign=bottom;edgeStyle=elbowEdgeStyle;elbow=horizontal;curved=0;rounded=0;dashed=1;dashPattern=2 3;endArrow=block;strokeColor=light-dark(#000000,#CC0066);strokeWidth=4;fontStyle=1;fontSize=19;" edge="1" parent="1" source="PJ0HLcLy97F8GX600f_A-8" target="PJ0HLcLy97F8GX600f_A-3">
          <mxGeometry x="0.0203" y="-15" relative="1" as="geometry">
            <Array as="points">
              <mxPoint x="1194" y="1595" />
            </Array>
            <mxPoint as="offset" />
          </mxGeometry>
        </mxCell>
        <mxCell id="PJ0HLcLy97F8GX600f_A-52" value="dto creado" style="verticalAlign=bottom;edgeStyle=elbowEdgeStyle;elbow=horizontal;curved=0;rounded=0;dashed=1;dashPattern=2 3;endArrow=block;strokeWidth=4;fillColor=#a20025;strokeColor=#6F0000;fontStyle=1;fontSize=18;" edge="1" parent="1" source="PJ0HLcLy97F8GX600f_A-3" target="PJ0HLcLy97F8GX600f_A-2">
          <mxGeometry relative="1" as="geometry">
            <Array as="points">
              <mxPoint x="515" y="1649" />
            </Array>
          </mxGeometry>
        </mxCell>
        <mxCell id="PJ0HLcLy97F8GX600f_A-53" value="201 Created" style="verticalAlign=bottom;edgeStyle=elbowEdgeStyle;elbow=vertical;curved=0;rounded=0;dashed=1;dashPattern=2 3;endArrow=block;fillColor=#60a917;strokeColor=#2D7600;strokeWidth=4;fontSize=25;fontStyle=1" edge="1" parent="1" source="PJ0HLcLy97F8GX600f_A-2" target="PJ0HLcLy97F8GX600f_A-1">
          <mxGeometry relative="1" as="geometry">
            <Array as="points">
              <mxPoint x="250" y="1703" />
            </Array>
          </mxGeometry>
        </mxCell>
        <mxCell id="PJ0HLcLy97F8GX600f_A-54" value="POST /promociones/aplicar" style="verticalAlign=bottom;edgeStyle=elbowEdgeStyle;elbow=horizontal;curved=0;rounded=0;endArrow=block;strokeWidth=4;fillColor=#60a917;strokeColor=#2D7600;fontSize=19;fontStyle=1" edge="1" parent="1" source="PJ0HLcLy97F8GX600f_A-1" target="PJ0HLcLy97F8GX600f_A-2">
          <mxGeometry relative="1" as="geometry">
            <Array as="points">
              <mxPoint x="247" y="1835" />
            </Array>
          </mxGeometry>
        </mxCell>
        <mxCell id="PJ0HLcLy97F8GX600f_A-55" value="aplicarCodigo(codigo)" style="verticalAlign=bottom;edgeStyle=elbowEdgeStyle;elbow=vertical;curved=0;rounded=0;endArrow=block;fontSize=19;fontStyle=1;strokeColor=light-dark(#000000,#FFC5C5);strokeWidth=4;" edge="1" parent="1" source="PJ0HLcLy97F8GX600f_A-2" target="PJ0HLcLy97F8GX600f_A-3">
          <mxGeometry relative="1" as="geometry">
            <Array as="points">
              <mxPoint x="512" y="1889" />
            </Array>
          </mxGeometry>
        </mxCell>
        <mxCell id="PJ0HLcLy97F8GX600f_A-56" value="findByCodigo()" style="verticalAlign=bottom;edgeStyle=elbowEdgeStyle;elbow=horizontal;curved=0;rounded=0;endArrow=block;fontSize=20;fontStyle=1;strokeWidth=4;strokeColor=light-dark(#000000,#CC0066);" edge="1" parent="1" source="PJ0HLcLy97F8GX600f_A-3" target="PJ0HLcLy97F8GX600f_A-9">
          <mxGeometry relative="1" as="geometry">
            <Array as="points">
              <mxPoint x="1297" y="1943" />
            </Array>
          </mxGeometry>
        </mxCell>
        <mxCell id="PJ0HLcLy97F8GX600f_A-57" value="CÃ³digo encontrado" style="verticalAlign=bottom;edgeStyle=elbowEdgeStyle;elbow=vertical;curved=0;rounded=0;dashed=1;dashPattern=2 3;endArrow=block;fontStyle=1;fontSize=20;strokeWidth=4;strokeColor=light-dark(#000000,#CC0066);" edge="1" parent="1" source="PJ0HLcLy97F8GX600f_A-9" target="PJ0HLcLy97F8GX600f_A-3">
          <mxGeometry x="0.0002" relative="1" as="geometry">
            <Array as="points">
              <mxPoint x="1300" y="1997" />
            </Array>
            <mxPoint as="offset" />
          </mxGeometry>
        </mxCell>
        <mxCell id="PJ0HLcLy97F8GX600f_A-58" value="resultado" style="verticalAlign=bottom;edgeStyle=elbowEdgeStyle;elbow=vertical;curved=0;rounded=0;dashed=1;dashPattern=2 3;endArrow=block;strokeColor=light-dark(#000000,#FFC5C5);strokeWidth=4;fontSize=20;fontStyle=1" edge="1" parent="1" source="PJ0HLcLy97F8GX600f_A-3" target="PJ0HLcLy97F8GX600f_A-2">
          <mxGeometry relative="1" as="geometry">
            <Array as="points">
              <mxPoint x="515" y="2051" />
            </Array>
          </mxGeometry>
        </mxCell>
        <mxCell id="PJ0HLcLy97F8GX600f_A-59" value="200 OK" style="verticalAlign=bottom;edgeStyle=elbowEdgeStyle;elbow=vertical;curved=0;rounded=0;dashed=1;dashPattern=2 3;endArrow=block;fillColor=#60a917;strokeColor=#2D7600;strokeWidth=4;fontSize=25;" edge="1" parent="1">
          <mxGeometry relative="1" as="geometry">
            <Array as="points">
              <mxPoint x="245.5" y="2090" />
            </Array>
            <mxPoint x="377" y="2090" as="sourcePoint" />
            <mxPoint x="32.07142857142844" y="2090" as="targetPoint" />
          </mxGeometry>
        </mxCell>
        <mxCell id="PJ0HLcLy97F8GX600f_A-60" value="validar(codigo, fecha)" style="verticalAlign=bottom;edgeStyle=elbowEdgeStyle;elbow=vertical;curved=0;rounded=0;endArrow=block;strokeWidth=4;strokeColor=light-dark(#000000,#CC0066);fontSize=20;fontStyle=1" edge="1" parent="1" source="PJ0HLcLy97F8GX600f_A-3" target="PJ0HLcLy97F8GX600f_A-9">
          <mxGeometry relative="1" as="geometry">
            <Array as="points">
              <mxPoint x="1297" y="2237" />
            </Array>
          </mxGeometry>
        </mxCell>
        <mxCell id="PJ0HLcLy97F8GX600f_A-61" value="vÃ¡lido / no vÃ¡lido" style="verticalAlign=bottom;edgeStyle=elbowEdgeStyle;elbow=horizontal;curved=0;rounded=0;dashed=1;dashPattern=2 3;endArrow=block;strokeWidth=4;strokeColor=light-dark(#000000,#CC0066);fontSize=24;fontStyle=1" edge="1" parent="1" source="PJ0HLcLy97F8GX600f_A-9" target="PJ0HLcLy97F8GX600f_A-3">
          <mxGeometry x="0.0008" relative="1" as="geometry">
            <Array as="points">
              <mxPoint x="1300" y="2291" />
            </Array>
            <mxPoint as="offset" />
          </mxGeometry>
        </mxCell>
        <mxCell id="PJ0HLcLy97F8GX600f_A-62" value="registrarUso(cliente, promo)" style="verticalAlign=bottom;edgeStyle=elbowEdgeStyle;elbow=horizontal;curved=0;rounded=0;endArrow=block;fontSize=19;fontStyle=1;strokeWidth=4;fillColor=#a20025;strokeColor=#6F0000;" edge="1" parent="1" source="PJ0HLcLy97F8GX600f_A-3" target="PJ0HLcLy97F8GX600f_A-7">
          <mxGeometry relative="1" as="geometry">
            <Array as="points">
              <mxPoint x="1086" y="2423" />
            </Array>
          </mxGeometry>
        </mxCell>
        <mxCell id="PJ0HLcLy97F8GX600f_A-63" value="save(uso)" style="verticalAlign=bottom;edgeStyle=elbowEdgeStyle;elbow=vertical;curved=0;rounded=0;endArrow=block;fontSize=20;fontStyle=1;strokeWidth=4;strokeColor=light-dark(#000000,#CC0066);" edge="1" parent="1" source="PJ0HLcLy97F8GX600f_A-7" target="PJ0HLcLy97F8GX600f_A-11">
          <mxGeometry relative="1" as="geometry">
            <Array as="points">
              <mxPoint x="1950" y="2477" />
            </Array>
          </mxGeometry>
        </mxCell>
        <mxCell id="PJ0HLcLy97F8GX600f_A-64" value="guardado" style="verticalAlign=bottom;edgeStyle=elbowEdgeStyle;elbow=horizontal;curved=0;rounded=0;dashed=1;dashPattern=2 3;endArrow=block;fontSize=20;fontStyle=1;strokeWidth=4;strokeColor=light-dark(#000000,#CC0066);" edge="1" parent="1" source="PJ0HLcLy97F8GX600f_A-11" target="PJ0HLcLy97F8GX600f_A-7">
          <mxGeometry relative="1" as="geometry">
            <Array as="points">
              <mxPoint x="1953" y="2531" />
            </Array>
          </mxGeometry>
        </mxCell>
        <mxCell id="PJ0HLcLy97F8GX600f_A-65" value="GET /promociones/estadisticas" style="verticalAlign=bottom;edgeStyle=elbowEdgeStyle;elbow=horizontal;curved=0;rounded=0;endArrow=block;fillColor=#60a917;strokeColor=#2D7600;strokeWidth=4;fontSize=19;fontStyle=1" edge="1" parent="1" source="PJ0HLcLy97F8GX600f_A-1" target="PJ0HLcLy97F8GX600f_A-2">
          <mxGeometry relative="1" as="geometry">
            <Array as="points">
              <mxPoint x="247" y="2663" />
            </Array>
          </mxGeometry>
        </mxCell>
        <mxCell id="PJ0HLcLy97F8GX600f_A-66" value="obtenerEstadisticas()" style="verticalAlign=bottom;edgeStyle=elbowEdgeStyle;elbow=vertical;curved=0;rounded=0;endArrow=block;fontSize=20;strokeWidth=4;fillColor=#a20025;strokeColor=#6F0000;fontStyle=1" edge="1" parent="1" source="PJ0HLcLy97F8GX600f_A-2" target="PJ0HLcLy97F8GX600f_A-6">
          <mxGeometry relative="1" as="geometry">
            <Array as="points">
              <mxPoint x="864" y="2717" />
            </Array>
          </mxGeometry>
        </mxCell>
        <mxCell id="PJ0HLcLy97F8GX600f_A-67" value="consultar usos" style="verticalAlign=bottom;edgeStyle=elbowEdgeStyle;elbow=vertical;curved=0;rounded=0;endArrow=block;strokeWidth=4;fontSize=20;strokeColor=light-dark(#000000,#CC0066);fontStyle=1" edge="1" parent="1" source="PJ0HLcLy97F8GX600f_A-6" target="PJ0HLcLy97F8GX600f_A-11">
          <mxGeometry relative="1" as="geometry">
            <Array as="points">
              <mxPoint x="1850" y="2771" />
            </Array>
          </mxGeometry>
        </mxCell>
        <mxCell id="PJ0HLcLy97F8GX600f_A-68" value="datos" style="verticalAlign=bottom;edgeStyle=elbowEdgeStyle;elbow=horizontal;curved=0;rounded=0;dashed=1;dashPattern=2 3;endArrow=block;strokeWidth=4;fontSize=22;strokeColor=light-dark(#000000,#CC0066);fontStyle=1" edge="1" parent="1" source="PJ0HLcLy97F8GX600f_A-11" target="PJ0HLcLy97F8GX600f_A-6">
          <mxGeometry relative="1" as="geometry">
            <Array as="points">
              <mxPoint x="1853" y="2825" />
            </Array>
          </mxGeometry>
        </mxCell>
        <mxCell id="PJ0HLcLy97F8GX600f_A-69" value="resumen" style="verticalAlign=bottom;edgeStyle=elbowEdgeStyle;elbow=vertical;curved=0;rounded=0;dashed=1;dashPattern=2 3;endArrow=block;strokeWidth=4;fillColor=#a20025;strokeColor=#6F0000;fontSize=20;fontStyle=1" edge="1" parent="1" source="PJ0HLcLy97F8GX600f_A-6" target="PJ0HLcLy97F8GX600f_A-2">
          <mxGeometry relative="1" as="geometry">
            <Array as="points">
              <mxPoint x="867" y="2879" />
            </Array>
          </mxGeometry>
        </mxCell>
        <mxCell id="PJ0HLcLy97F8GX600f_A-70" value="200 OK" style="verticalAlign=bottom;edgeStyle=elbowEdgeStyle;elbow=vertical;curved=0;rounded=0;dashed=1;dashPattern=2 3;endArrow=block;strokeWidth=4;fillColor=#60a917;strokeColor=#2D7600;fontSize=25;" edge="1" parent="1" source="PJ0HLcLy97F8GX600f_A-2" target="PJ0HLcLy97F8GX600f_A-1">
          <mxGeometry relative="1" as="geometry">
            <Array as="points">
              <mxPoint x="250" y="2933" />
            </Array>
          </mxGeometry>
        </mxCell>
        <mxCell id="PJ0HLcLy97F8GX600f_A-71" value="GET /promociones/historial" style="verticalAlign=bottom;edgeStyle=elbowEdgeStyle;elbow=horizontal;curved=0;rounded=0;endArrow=block;strokeWidth=4;fillColor=#60a917;strokeColor=#2D7600;fontSize=20;fontStyle=1" edge="1" parent="1" source="PJ0HLcLy97F8GX600f_A-1" target="PJ0HLcLy97F8GX600f_A-2">
          <mxGeometry relative="1" as="geometry">
            <Array as="points">
              <mxPoint x="247" y="3065" />
            </Array>
          </mxGeometry>
        </mxCell>
        <mxCell id="PJ0HLcLy97F8GX600f_A-72" value="obtenerHistorial()" style="verticalAlign=bottom;edgeStyle=elbowEdgeStyle;elbow=vertical;curved=0;rounded=0;endArrow=block;fontSize=24;fontStyle=1;strokeWidth=4;strokeColor=#6F0000;fillColor=#a20025;" edge="1" parent="1" source="PJ0HLcLy97F8GX600f_A-2" target="PJ0HLcLy97F8GX600f_A-7">
          <mxGeometry x="0.001" relative="1" as="geometry">
            <Array as="points">
              <mxPoint x="964" y="3119" />
            </Array>
            <mxPoint as="offset" />
          </mxGeometry>
        </mxCell>
        <mxCell id="PJ0HLcLy97F8GX600f_A-73" value="findAll()" style="verticalAlign=bottom;edgeStyle=elbowEdgeStyle;elbow=horizontal;curved=0;rounded=0;endArrow=block;strokeWidth=4;fontSize=26;fontStyle=1;strokeColor=light-dark(#000000,#CC0066);" edge="1" parent="1" source="PJ0HLcLy97F8GX600f_A-7" target="PJ0HLcLy97F8GX600f_A-11">
          <mxGeometry x="-0.0007" relative="1" as="geometry">
            <Array as="points">
              <mxPoint x="1950" y="3173" />
            </Array>
            <mxPoint as="offset" />
          </mxGeometry>
        </mxCell>
        <mxCell id="PJ0HLcLy97F8GX600f_A-74" value="lista usos" style="verticalAlign=bottom;edgeStyle=elbowEdgeStyle;elbow=vertical;curved=0;rounded=0;dashed=1;dashPattern=2 3;endArrow=block;strokeWidth=4;fontSize=22;fontStyle=1;strokeColor=light-dark(#000000,#CC0066);" edge="1" parent="1" source="PJ0HLcLy97F8GX600f_A-11" target="PJ0HLcLy97F8GX600f_A-7">
          <mxGeometry relative="1" as="geometry">
            <Array as="points">
              <mxPoint x="1953" y="3227" />
            </Array>
          </mxGeometry>
        </mxCell>
        <mxCell id="PJ0HLcLy97F8GX600f_A-75" value="lista usos" style="verticalAlign=bottom;edgeStyle=elbowEdgeStyle;elbow=horizontal;curved=0;rounded=0;dashed=1;dashPattern=2 3;endArrow=block;strokeColor=#6F0000;strokeWidth=4;fontStyle=1;fontSize=24;fillColor=#a20025;" edge="1" parent="1" source="PJ0HLcLy97F8GX600f_A-7" target="PJ0HLcLy97F8GX600f_A-2">
          <mxGeometry relative="1" as="geometry">
            <Array as="points">
              <mxPoint x="967" y="3281" />
            </Array>
          </mxGeometry>
        </mxCell>
        <mxCell id="PJ0HLcLy97F8GX600f_A-76" value="200 OK" style="verticalAlign=bottom;edgeStyle=elbowEdgeStyle;elbow=vertical;curved=0;rounded=0;dashed=1;dashPattern=2 3;endArrow=block;fillColor=#60a917;strokeColor=#2D7600;strokeWidth=4;fontSize=25;fontStyle=1" edge="1" parent="1" source="PJ0HLcLy97F8GX600f_A-2" target="PJ0HLcLy97F8GX600f_A-1">
          <mxGeometry relative="1" as="geometry">
            <Array as="points">
              <mxPoint x="250" y="3335" />
            </Array>
          </mxGeometry>
        </mxCell>
        <mxCell id="PJ0HLcLy97F8GX600f_A-77" value="1. Ver promociones disponibles" style="fillColor=#ffff88;strokeColor=#9E916F;fontSize=18;" vertex="1" parent="1">
          <mxGeometry x="40" y="95" width="337" height="48" as="geometry" />
        </mxCell>
        <mxCell id="PJ0HLcLy97F8GX600f_A-78" value="2. Editar promociÃ³n" style="fillColor=#ffff88;strokeColor=#9E916F;fontSize=18;" vertex="1" parent="1">
          <mxGeometry x="40" y="497" width="337" height="48" as="geometry" />
        </mxCell>
        <mxCell id="PJ0HLcLy97F8GX600f_A-79" value="3. Crear promociÃ³n" style="fillColor=#ffff88;strokeColor=#9E916F;fontSize=18;" vertex="1" parent="1">
          <mxGeometry x="40" y="1007" width="337" height="48" as="geometry" />
        </mxCell>
        <mxCell id="PJ0HLcLy97F8GX600f_A-80" value="4. Aplicar cÃ³digo promocional" style="fillColor=#ffff88;strokeColor=#9E916F;fontSize=18;" vertex="1" parent="1">
          <mxGeometry x="40" y="1733" width="337" height="48" as="geometry" />
        </mxCell>
        <mxCell id="PJ0HLcLy97F8GX600f_A-81" value="5. Validar cÃ³digo promocional" style="fillColor=#ffff88;strokeColor=#9E916F;fontSize=18;" vertex="1" parent="1">
          <mxGeometry x="40" y="2125" width="1376" height="48" as="geometry" />
        </mxCell>
        <mxCell id="PJ0HLcLy97F8GX600f_A-82" value="6. Registrar uso de promociÃ³n" style="fillColor=#ffff88;strokeColor=#9E916F;fontSize=18;" vertex="1" parent="1">
          <mxGeometry x="40" y="2311" width="954" height="48" as="geometry" />
        </mxCell>
        <mxCell id="PJ0HLcLy97F8GX600f_A-83" value="7. Ver estadÃ­sticas de uso" style="fillColor=#ffff88;strokeColor=#9E916F;fontSize=18;" vertex="1" parent="1">
          <mxGeometry x="40" y="2561" width="337" height="48" as="geometry" />
        </mxCell>
        <mxCell id="PJ0HLcLy97F8GX600f_A-84" value="8. Ver historial de promociones usadas" style="fillColor=#ffff88;strokeColor=#9E916F;fontSize=18;" vertex="1" parent="1">
          <mxGeometry x="40" y="2980" width="337" height="48" as="geometry" />
        </mxCell>
      </root>
    </mxGraphModel>
  </diagram>
</mxfile>
